<?xml version="1.0" encoding="utf-8"?>
<svg version="1.1" id="Wok" xmlns:dc="http://purl.org/dc/elements/1.1/" xmlns:cc="http://creativecommons.org/ns#" xmlns:rdf="http://www.w3.org/1999/02/22-rdf-syntax-ns#" xmlns:svg="http://www.w3.org/2000/svg" xmlns="http://www.w3.org/2000/svg" xmlns:xlink="http://www.w3.org/1999/xlink" x="0px" y="0px" viewBox="0 0 500 500" style="enable-background:new 0 0 500 500;" xml:space="preserve">
    <title
     id="title">Gingerbase</title>
    <metadata
     id="license">
        <rdf:RDF>
            <cc:Work rdf:about="">
            <dc:format>image/svg+xml</dc:format>
            <dc:type rdf:resource="http://purl.org/dc/dcmitype/StillImage" />
            <dc:title>Gingerbase</dc:title>
            <cc:license rdf:resource="http://www.apache.org/licenses/LICENSE-2.0" />
            <dc:date>2016</dc:date>
            <dc:creator>
                <cc:Agent>
                    <dc:title>IBM, Corp.</dc:title>
                </cc:Agent>
            </dc:creator>
            <dc:rights>
                <cc:Agent>
                    <dc:title>IBM, Corp.</dc:title>
                </cc:Agent>
            </dc:rights>
            <dc:publisher>
                <cc:Agent>
                    <dc:title>IBM, Corp.</dc:title>
                </cc:Agent>
            </dc:publisher>
            <dc:contributor>
                <cc:Agent>
                    <dc:title>https://github.com/kimchi-project/gingerbase</dc:title>
                </cc:Agent>
            </dc:contributor>
            <dc:description>Ginger Base is an open source base host management plugin for Wok (Webserver Originated from Kimchi), that provides an intuitive web panel with common tools for configuring and managing the Linux systems.</dc:description>
      </cc:Work>
    </rdf:RDF>
  </metadata>
<style type="text/css">
    .st9{fill:#008ABF;}
</style>
<g>
    <g>
        <rect x="81.2" y="156" class="st9" width="337.5" height="22.1"/>
        <polygon class="st9" points="331.7,295.4 350.8,344 370.4,344 389.5,295.4 389.5,234.5 331.7,234.5        "/>
        <polygon class="st9" points="221.1,295.4 240.2,344 259.8,344 278.9,295.4 278.9,234.5 221.1,234.5        "/>
        <g>
            <polygon class="st9" points="110.5,295.4 129.6,344 149.2,344 168.3,295.4 168.3,234.5 110.5,234.5            "/>
            <path class="st9" d="M68.7,192.9v86.9h27.1v-45.3c0-8.1,6.6-14.7,14.7-14.7h57.8c8.1,0,14.7,6.6,14.7,14.7v45.3h23.3v-45.3
                c0-8.1,6.6-14.7,14.7-14.7h57.8c8.1,0,14.7,6.6,14.7,14.7v45.3H317v-45.3c0-8.1,6.6-14.7,14.7-14.7h57.8
                c8.1,0,14.7,6.6,14.7,14.7v45.3h27.1v-86.9H68.7z"/>
        </g>
    </g>
</g>
</svg>
